<?xml version="1.0" encoding="UTF-8" standalone="no"?>

<svg xmlns="http://www.w3.org/2000/svg" xmlns:xlink="http://www.w3.org/1999/xlink" style="isolation:isolate" viewBox="0 0 200 200" width="200pt" height="200pt">
    
<g style="opacity:0.9;">
        
<path d=" M 55.148 49 C 55.448 48.6 60.848 29.3 61.848 7.3 C 87.548 17.5 106.848 17.6 121.948 17.6 C 120.948 25.5 117.748 45.8 121.248 72.9 C 121.348 73.2 114.448 74.2 111.448 74.5 C 111.448 74.4 107.148 83.4 108.348 99.8 C 108.348 99.9 114.248 103.9 117.648 105.4 C 117.748 105.3 123.848 103.8 130.048 103 C 130.148 103.1 130.448 117.4 133.148 130.8 C 133.048 130.8 134.048 130.7 134.448 130.7 C 134.448 130.8 134.848 131.7 135.048 132 C 135.548 131.9 140.248 128.8 146.748 126.4 C 146.848 126.9 145.748 133.9 146.348 141 C 146.548 140.9 153.148 141.8 164.648 136.4 C 164.348 136.6 154.748 146 146.148 157.6 C 146.048 157.6 137.248 156.7 127.648 157 C 127.348 157.2 114.748 170.9 107.248 176.9 C 107.148 176.3 102.548 170 98.648 167.6 C 97.948 167.7 91.648 170.5 87.748 173.3 C 87.748 173.1 81.648 162.6 82.448 134 C 82.448 134 87.648 135.9 91.048 136.4 C 89.948 128.2 82.548 92.7 59.748 70.3 C 59.848 69.9 60.648 65.4 62.848 59.2 C 62.548 58.3 58.048 52.4 55.148 49 Z"

fill="rgb(200,0,0)"/>




</g>


</g></svg>