<svg
 xmlns="http://www.w3.org/2000/svg"
 xmlns:xlink="http://www.w3.org/1999/xlink"
 viewBox="-1 -1 22 22"
 height="20px"
 width="20px"
>
    <defs>
        <g id="ikon">
            
            <path d="M1.1 .7L2 1.8Q8 1.5 12 3L13.5 2.5L13 3.5Q13 7 11.9 9.9  Q8 12 3 9 L3 8.3 L2.7 9 L2.3 9.25 L3 9.2 Q8 12.5 12.3 10.1 L12.9 8.5 L12.7 10.3 Q14.4 13 15.5 17 L14.5 17.5L16.2 17.3Q18 17.3 19 18 L 17 20.5Q10 20.7 4.5 20.5 Q2 20.4 1 19.8 L2 18.1L3.2 18 L2.1 17.5L2.7 17.3  L2 16.7  Q.4 10 1.1 .7 Z"
            fill="var(--body-color,hsl(195,100%,99%))" />
            
            
            <path d="M0 0Z"
                fill="var(--key-light,none)"/>
                
            <path d="M0 0Z"
                fill="var(--fill-light,hsla(0,0%,0%,0.35))"/>

            <path d="M0 0Z"
                fill="var(--back-light,hsla(0,0%,40%,0.5))"/>
                
            <path d="M.7 0L2 1Q8 1 12 2.2
            L15 1.8
            Q14.5 2.6 14 3.2
            
            Q14 7 13.4 10
            L16.5 16.7
            Q18.4 16.7 20 18 L18 21 L4 21 Q 2 21 0 20
           
            L1.1 18 .9 17.5 1.15 17.3 .9 16.9
            L1.2 16.5
            
            Q0 7 .7 0Z
            
            M1.1 .7L2 1.8Q8 1.5 12 3L13.5 2.5L13 3.5
            Q13 7 11.9 9.9
            
            Q8 12 3 9
            L3 8.3
            L2.7 9
            L2.3 9.25
            L3 9.2
            Q8 12.5 12.3 10.1
            L12.9 8.5
            L12.7 10.3
            Q14.4 13 15.5 17
            L14.5 17.5L16.2 17.3Q18 17.3 19 18
            L 17 20.5Q10 20.7 4.5 20.5
            Q2 20.4 1 19.8
            L2 18.1L3.2 18
            L2.1 17.5L2.7 17.3
            
            L2 16.7  Q.4 10 1.1 .7
            Z
            
            "
                fill-rule="evenodd"
                fill="var(--outline-color,hsl(195,53%,79%))"/>
        
        </g>
    </defs>
    
    <g>
        <title>
    #ikon :::

    --body-color : [color];
    --outline-color : [color];
    --key-light : [color];
    --fill-light: [color];
    --back-light : [color];
    

    ~queviva
        </title>
        
        <use xlink:href="#ikon" />
    </g>
</svg>
